<?xml version="1.0" encoding="UTF-8"?>
<svg xmlns="http://www.w3.org/2000/svg" xmlns:xlink="http://www.w3.org/1999/xlink" width="30px" height="30px" viewBox="0 0 30 30" version="1.1">
<g id="surface1">
<path style=" stroke:none;fill-rule:nonzero;fill:rgb(90.196078%,90.196078%,90.196078%);fill-opacity:1;" d="M 30.011719 15.007812 C 30.011719 17.914062 29.183594 20.769531 27.574219 23.207031 C 27.242188 23.730469 26.882812 24.203125 26.46875 24.675781 C 25.523438 25.78125 24.445312 26.722656 23.253906 27.527344 C 22.921875 27.75 22.589844 27.941406 22.257812 28.136719 C 20.457031 29.132812 18.460938 29.742188 16.4375 29.9375 C 15.96875 29.992188 15.496094 29.992188 15.027344 29.992188 C 13.726562 29.992188 12.421875 29.828125 11.148438 29.496094 C 10.429688 29.300781 9.734375 29.050781 9.042969 28.773438 C 8.683594 28.636719 8.351562 28.46875 8.019531 28.273438 C 7.214844 27.859375 6.46875 27.359375 5.746094 26.808594 C 5.414062 26.558594 5.109375 26.28125 4.804688 26.003906 C -1.261719 20.378906 -1.621094 10.878906 4 4.8125 C 9.625 -1.253906 19.125 -1.640625 25.191406 4.007812 C 28.269531 6.835938 30.011719 10.824219 30.011719 15.007812 Z M 30.011719 15.007812 "/>
<path style=" stroke:none;fill-rule:nonzero;fill:rgb(100%,72.156863%,72.156863%);fill-opacity:1;" d="M 11.371094 16.363281 C 11.371094 16.363281 12.726562 20.160156 11.675781 22.292969 C 10.621094 24.425781 13.335938 26.835938 13.335938 26.835938 C 13.335938 26.835938 20.484375 23.207031 19.570312 21.378906 C 18.65625 19.550781 17.132812 17.140625 17.4375 15.617188 Z M 11.371094 16.363281 "/>
<path style=" stroke:none;fill-rule:nonzero;fill:rgb(100%,72.156863%,72.156863%);fill-opacity:1;" d="M 18.878906 12.957031 C 18.878906 10.28125 16.707031 8.109375 14.03125 8.109375 C 11.351562 8.109375 9.183594 10.28125 9.183594 12.957031 C 9.183594 15.632812 11.351562 17.804688 14.03125 17.804688 C 16.707031 17.804688 18.878906 15.632812 18.878906 12.957031 Z M 18.878906 12.957031 "/>
<path style=" stroke:none;fill-rule:nonzero;fill:rgb(34.117647%,35.294118%,53.72549%);fill-opacity:1;" d="M 11.121094 29.496094 C 10.402344 29.300781 9.707031 29.050781 9.015625 28.773438 L 9.152344 25.089844 L 10.511719 22.042969 C 10.816406 22.292969 11.148438 22.484375 11.480469 22.679688 C 11.5625 22.734375 11.648438 22.761719 11.730469 22.816406 C 13.003906 23.425781 15.109375 23.980469 17.132812 22.457031 C 17.878906 21.875 18.515625 21.15625 18.988281 20.351562 L 22.839844 22.511719 L 23.03125 24.839844 L 23.253906 27.554688 C 22.921875 27.777344 22.589844 27.96875 22.257812 28.164062 C 20.457031 29.160156 18.460938 29.769531 16.4375 29.964844 C 15.96875 30.019531 15.496094 30.019531 15.027344 30.019531 C 13.695312 30.019531 12.394531 29.828125 11.121094 29.496094 Z M 11.121094 29.496094 "/>
<path style=" stroke:none;fill-rule:nonzero;fill:rgb(34.117647%,35.294118%,53.72549%);fill-opacity:1;" d="M 12.0625 19.769531 L 11.867188 21.765625 L 11.757812 22.816406 L 11.621094 24.371094 L 11.121094 29.496094 C 10.402344 29.300781 9.707031 29.050781 9.015625 28.773438 C 8.65625 28.636719 8.324219 28.46875 7.992188 28.273438 C 7.1875 27.859375 6.4375 27.359375 5.71875 26.808594 L 5.191406 24.3125 L 5.21875 24.285156 Z M 12.0625 19.769531 "/>
<path style=" stroke:none;fill-rule:nonzero;fill:rgb(34.117647%,35.294118%,53.72549%);fill-opacity:1;" d="M 22.257812 28.136719 C 20.457031 29.132812 18.460938 29.742188 16.4375 29.9375 C 16.550781 28.082031 16.714844 26.308594 16.882812 24.730469 C 16.964844 23.925781 17.078125 23.152344 17.1875 22.457031 C 17.519531 20.242188 17.878906 18.71875 18.128906 18.523438 L 19.820312 19.632812 L 26.632812 22.042969 L 26.496094 24.675781 C 25.554688 25.78125 24.472656 26.722656 23.28125 27.527344 C 22.921875 27.75 22.589844 27.96875 22.257812 28.136719 Z M 22.257812 28.136719 "/>
<path style=" stroke:none;fill-rule:nonzero;fill:rgb(34.117647%,35.294118%,53.72549%);fill-opacity:1;" d="M 5.746094 26.835938 C 5.414062 26.585938 5.109375 26.308594 4.804688 26.03125 L 5.054688 24.34375 L 5.25 24.3125 L 6.105469 24.203125 L 7.992188 28.304688 C 7.214844 27.859375 6.46875 27.390625 5.746094 26.835938 Z M 5.746094 26.835938 "/>
<path style=" stroke:none;fill-rule:nonzero;fill:rgb(34.117647%,35.294118%,53.72549%);fill-opacity:1;" d="M 27.574219 23.207031 C 27.242188 23.730469 26.882812 24.203125 26.46875 24.675781 C 25.523438 25.78125 24.445312 26.722656 23.253906 27.527344 C 22.921875 27.75 22.589844 27.941406 22.257812 28.136719 L 22.089844 27.359375 L 23.058594 24.839844 L 24.222656 21.765625 L 26.660156 22.070312 C 26.964844 22.429688 27.269531 22.816406 27.574219 23.207031 Z M 27.574219 23.207031 "/>
<path style=" stroke:none;fill-rule:nonzero;fill:rgb(18.431373%,18.039216%,25.490196%);fill-opacity:1;" d="M 18.65625 8.550781 C 17.90625 7.359375 16.773438 6.476562 15.441406 6.085938 L 14.445312 6.890625 L 14.832031 5.976562 C 14.5 5.921875 14.195312 5.921875 13.863281 5.921875 L 12.976562 7.054688 L 13.335938 5.949219 C 11.785156 6.140625 10.371094 6.972656 9.457031 8.246094 C 8.324219 9.882812 8.128906 12.152344 9.238281 13.789062 C 9.542969 12.847656 9.902344 11.960938 10.207031 11.046875 C 10.457031 11.074219 10.675781 11.074219 10.925781 11.046875 L 11.285156 10.1875 L 11.398438 11.019531 C 12.5625 10.90625 14.25 10.683594 15.359375 10.492188 L 15.25 9.855469 L 15.886719 10.378906 C 16.21875 10.296875 16.410156 10.242188 16.410156 10.1875 C 17.214844 11.488281 18.019531 12.320312 18.847656 13.648438 C 19.152344 11.765625 19.679688 10.242188 18.65625 8.550781 Z M 18.65625 8.550781 "/>
<path style=" stroke:none;fill-rule:nonzero;fill:rgb(100%,72.156863%,72.156863%);fill-opacity:1;" d="M 18.710938 12.789062 C 18.710938 12.421875 18.5625 12.125 18.378906 12.125 C 18.195312 12.125 18.046875 12.421875 18.046875 12.789062 C 18.046875 13.15625 18.195312 13.457031 18.378906 13.457031 C 18.5625 13.457031 18.710938 13.15625 18.710938 12.789062 Z M 18.710938 12.789062 "/>
</g>
</svg>
